<svg id="Слой_1" data-name="Слой 1" xmlns="http://www.w3.org/2000/svg" xmlns:xlink="http://www.w3.org/1999/xlink" viewBox="0 0 198.3 226.11"><defs><style>.cls-1{fill:url(#Безымянный_градиент_13);}</style><linearGradient id="Безымянный_градиент_13" x1="585.08" y1="233.05" x2="783.38" y2="233.05" gradientUnits="userSpaceOnUse"><stop offset="0" stop-color="#e62736"/><stop offset="1" stop-color="#ea5463"/></linearGradient></defs><title>logo</title><path class="cls-1" d="M783.38,265.77a3.24,3.24,0,0,0-2.15-3.51c-1.39-.56-2.7-1.31-4.08-1.88l-9-3.69V175.48a2.17,2.17,0,0,0,0-1.38v0h0a3.45,3.45,0,0,0-1.79-1.75c-3.49-1.89-6.87-4-10.3-6q-39.3-22.74-78.57-45.51c-2-1.16-3.24-1.28-5.05.46-9.51,9.15-19.15,18.16-28.79,27.17q-27.74,25.95-55.54,51.82a8.62,8.62,0,0,0-3,6.92q.13,66.77.07,133.53c0,5.1,0,5.13,5.24,5.15L627,346h5.88l57.07.1a21.19,21.19,0,0,0,3.66-.1h9.37a17.39,17.39,0,0,0,3.07.1q36-.07,72-.18c5.31,0,5.33,0,5.33-5.61q0-33,0-66C783.36,271.44,783.29,268.6,783.38,265.77Zm-28,55.36c-6.5,0-13-.05-19.51,0-2.71,0-3.82-.91-3.75-3.82.18-7.5.06-15,.06-22.5,0-5.32,0-5.38-4.95-7.09-6.1-2.1-12.24-4.1-19.12-6.4-.09,2-.23,3.61-.24,5.24,0,9.67,0,19.33,0,29,0,5.5,0,5.55-5.64,5.55q-43.5,0-87,0c-5.33,0-5.35-.06-5.35-5.23,0-32.34.05-64.68-.08-97a10.65,10.65,0,0,1,3.87-8.65c8.58-7.81,17-15.77,25.47-23.7q18.12-17,36.19-34c1.9-1.79,3.63-2.65,6-.69a36.46,36.46,0,0,0,5.13,3q22.61,13,45.18,25.94,6.2,3.57,12.35,7.23v58.72l-.81-.33c-10.41-4.29-20.77-8.7-31.18-13-11.48-4.74-23-9.41-34.48-14.11l-17.07-7c-.1,1.55-.23,2.7-.23,3.85q0,23.5,0,47c0,10.17.08,20.34,0,30.51,0,2.79.86,3.84,3.69,3.75,5.33-.15,10.67,0,16,0,4.93,0,5,0,5-5,0-12.17,0-24.34,0-36.51a31.18,31.18,0,0,1,.11-4c.19-1.58.74-2.26,2.64-1.42,4.38,1.95,8.94,3.51,13.39,5.32,8.43,3.43,16.83,6.93,25.25,10.39,9.95,4.09,19.92,8.15,29.86,12.28a4.43,4.43,0,0,1,3,4.63q-.19,17,0,34C759.08,320,758.06,321.14,755.34,321.13Z" transform="translate(-585.08 -120)"/></svg>