<svg style="display: none;" xmlns="http://www.w3.org/2000/svg" xmlns:xlink="http://www.w3.org/1999/xlink">
    <symbol id="tel" viewBox="0 0 13 24">
        <g>
            <path class="cls-1" d="M616.93,504h-8.86a2.07,2.07,0,0,0-2.07,2.07v19.8a2.14,2.14,0,0,0,2.13,2.13h8.8a2.07,2.07,0,0,0,2.07-2.07V506.07A2.07,2.07,0,0,0,616.93,504ZM607,508h11v15H607Zm0-1.93a1.07,1.07,0,0,1,1.07-1.07h8.86a1.07,1.07,0,0,1,1.07,1.07V507H607Zm11,19.86a1.07,1.07,0,0,1-1.07,1.07h-8.8a1.14,1.14,0,0,1-1.13-1.13V524h11Z" transform="translate(-606 -504)"/>
        </g>
    </symbol>
    <symbol id="measurer" viewBox="0 0 380.8 394.4">
        <g>
            <path class="cls-1" d="M184,168c22.4,0,40-12.8,40-28.8s-17.6-28.8-40-28.8-40,12.8-40,28.8S161.6,168,184,168Zm0-41.6c13.6,0,24,7.2,24,12.8,0,6.4-10.4,12.8-24,12.8s-24-7.2-24-12.8C160,132.8,170.4,126.4,184,126.4Z" transform="translate(-65.6 -59.2)"/><path class="cls-1" d="M406.4,203.2h-104v-64c0-44-52.8-80-118.4-80s-118.4,36-118.4,80V302.4c0,36,36,68,87.2,77.6v65.6a7.56,7.56,0,0,0,8,8H406.4a39.61,39.61,0,0,0,40-40V243.2A39.61,39.61,0,0,0,406.4,203.2Zm-120,0h-32c12.8-6.4,24-14.4,32-24ZM184,75.2c56.8,0,102.4,28.8,102.4,64s-45.6,64-102.4,64-102.4-28.8-102.4-64S127.2,75.2,184,75.2ZM430.4,412.8a23.57,23.57,0,0,1-24,24h-9.6V400a8,8,0,0,0-16,0v36.8H351.2V400a8,8,0,0,0-16,0v36.8H305.6V400a8,8,0,0,0-16,0v36.8H260V400a8,8,0,0,0-16,0v36.8H214.4V400a8,8,0,0,0-16,0v36.8h-28V375.2a2.79,2.79,0,0,1,.8-1.6,7.21,7.21,0,0,0-.8-4V283.2H408a41.13,41.13,0,0,0,24-8V412.8Zm-24-145.6H160.8a7.56,7.56,0,0,0-8,8v88c-41.6-8.8-71.2-32.8-71.2-60.8V179.2c20.8,24,58.4,40,102.4,40H406.4a24,24,0,0,1,0,48Z" transform="translate(-65.6 -59.2)"/>
        </g>
    </symbol>
    <symbol id="calculator" viewBox="0 0 21.12 24.12">
        <g>
            <path class="cls-1" d="M476.38,191.94H458.62a1.68,1.68,0,0,0-1.68,1.68v20.76a1.68,1.68,0,0,0,1.68,1.68h17.76a1.68,1.68,0,0,0,1.68-1.68V193.62A1.68,1.68,0,0,0,476.38,191.94Zm.56,22.44a.56.56,0,0,1-.56.56H458.62a.56.56,0,0,1-.56-.56V193.62a.56.56,0,0,1,.56-.56h17.76a.56.56,0,0,1,.56.56Z" transform="translate(-456.94 -191.94)"/><path class="cls-1" d="M474.5,195h-14a.55.55,0,0,0-.55.55v6a.55.55,0,0,0,.55.55h14a.55.55,0,0,0,.55-.55v-6A.55.55,0,0,0,474.5,195Zm-.55,6h-12.9v-4.9H474Z" transform="translate(-456.94 -191.94)"/><path class="cls-1" d="M463.5,204h-2a.5.5,0,0,0,0,1H463v1.5a.5.5,0,0,0,1,0v-2A.5.5,0,0,0,463.5,204Z" transform="translate(-456.94 -191.94)"/><path class="cls-1" d="M468.5,204h-2a.5.5,0,0,0,0,1H468v1.5a.5.5,0,0,0,1,0v-2A.5.5,0,0,0,468.5,204Z" transform="translate(-456.94 -191.94)"/><path class="cls-1" d="M473.5,204h-2a.5.5,0,0,0,0,1H473v1.5a.5.5,0,0,0,1,0v-2A.5.5,0,0,0,473.5,204Z" transform="translate(-456.94 -191.94)"/><path class="cls-1" d="M463.5,210h-2a.5.5,0,0,0,0,1H463v1.5a.5.5,0,0,0,1,0v-2A.5.5,0,0,0,463.5,210Z" transform="translate(-456.94 -191.94)"/><path class="cls-1" d="M468.5,210h-2a.5.5,0,0,0,0,1H468v1.5a.5.5,0,0,0,1,0v-2A.5.5,0,0,0,468.5,210Z" transform="translate(-456.94 -191.94)"/><path class="cls-1" d="M473.5,210h-2a.5.5,0,0,0,0,1H473v1.5a.5.5,0,0,0,1,0v-2A.5.5,0,0,0,473.5,210Z" transform="translate(-456.94 -191.94)"/>
        </g>
    </symbol>
    <symbol id="intro-icon-1" viewBox="0 0 130.06 122.9">
        <g>
            <rect class="cls-1" x="93.45" y="51.13" width="7" height="42.49"/><rect class="cls-1" x="30.47" y="51.13" width="7" height="42.49"/><path class="cls-1" d="M2495.68,4407.56c-30-5.58-57.19-26.56-57.46-26.77l-.93-.74-.94.75c-.27.21-26.71,21.12-57,26.76H2373V4503h7v-74.6H2496V4503h7v-95.39Zm-58.17-18.82a165.51,165.51,0,0,0,33.85,18.82h-67.69A165.07,165.07,0,0,0,2437.51,4388.74Zm58.5,32.61H2380v-6.79H2496Z" transform="translate(-2372.95 -4380.05)"/>
        </g>
    </symbol>
    <symbol id="scroll-down" viewBox="0 0 166.59 295.1">
        <g>
            <path class="cls-1" d="M1456.91,128.22c-2-48.28-49-85.26-96.49-76.61-41.28,7.51-69.4,40.94-69.68,82.89-.08,11.17,0,22.33,0,33.5h0c0,11.16-.06,22.33,0,33.49a79.69,79.69,0,0,0,.67,12.47c5.77,34.52,25,58.5,58.47,68.63,33.67,10.17,63.31,1.2,87-25,12.69-14,19.67-30.74,19.76-50,0-6.16.1-12.33.13-18.49C1456.84,168.84,1457.73,148.49,1456.91,128.22Zm-7.6,79.21c-1,16.51-6.71,31.67-17.85,44.13-21.58,24.16-48.54,32.78-79.48,23.27-30.71-9.44-48-31.58-52.81-63.36a60.91,60.91,0,0,1-.38-9c0-22.83-.1-45.65,0-68.48.17-38.44,28.79-70.8,66.2-75a75.3,75.3,0,0,1,82.55,59.09,86,86,0,0,1,1.61,16.35c.24,11.16.07,22.33.07,33.49h.26C1449.48,181.13,1450.13,194.32,1449.31,207.43Z" transform="translate(-1290.66 -50.35)"/><path class="cls-1" d="M1399.44,310.33c-.87.77-1.67,1.62-2.49,2.44-6.48,6.48-12.93,13-19.43,19.42-3.8,3.77-3,4-7.2-.15-6.84-6.82-13.62-13.69-20.51-20.45a37.1,37.1,0,0,0-4.66-3.3c-1.33,1.26-3.15,2.19-3.17,3.17a7.8,7.8,0,0,0,1.65,5.2c8.68,9,17.54,17.77,26.42,26.54,3.09,3,4.87,3,8-.13,8.05-8,16-16,24-24,1.05-1.06,2.17-2.07,3.14-3.21,1.6-1.9,1.89-4,0-5.78S1401.29,308.7,1399.44,310.33Z" transform="translate(-1290.66 -50.35)"/><path class="cls-1" d="M1389.89,103.92a15.9,15.9,0,0,0-31.76.08c-.25,6.65-.27,13.33,0,20a15.58,15.58,0,0,0,15.65,15,15.75,15.75,0,0,0,16.12-15.1c.17-3.16,0-6.33,0-9.5C1389.92,110.92,1390.08,107.41,1389.89,103.92Zm-8.06,19.59A7.74,7.74,0,0,1,1374,131a7.88,7.88,0,0,1-7.88-7.46c-.27-3.29-.05-6.63-.05-10h0c0-3-.18-6,0-8.95.36-4.74,3.76-7.84,8.1-7.72a7.73,7.73,0,0,1,7.63,7.67C1382.11,110.9,1382.12,117.22,1381.83,123.51Z" transform="translate(-1290.66 -50.35)"/>
        </g>
    </symbol>
    <symbol id="form-icon-tel" viewBox="0 0 23.89 23.91">
        <g>
            <path class="cls-1" d="M527.15,665.49c-.17-.17-.29-.22-1.6-.74-.92-.36-2.06-.81-2.75-1.15a1.88,1.88,0,0,0-2.45.64l-.5.86a.46.46,0,0,1-.27.21c-.68,0-3.48-2.12-5.27-3.9s-4.09-4.69-4.06-5.38a.48.48,0,0,1,.21-.29l.87-.5a1.9,1.9,0,0,0,.64-2.45,19.89,19.89,0,0,1-1.21-3.34,1.92,1.92,0,0,0-2.15-1.41l-3.6.81a1.4,1.4,0,0,0-.92.69h0a2.72,2.72,0,0,0-.19,1.88,25.15,25.15,0,0,0,7,13.44,24.78,24.78,0,0,0,13.42,7,5.14,5.14,0,0,0,.78.07,2.16,2.16,0,0,0,1.08-.26,1.4,1.4,0,0,0,.69-.92l.81-3.61A1.75,1.75,0,0,0,527.15,665.49Zm-21.68-15.14h0l-.68-.41Zm19.85,19.91a1.73,1.73,0,0,1-.77,0A23.1,23.1,0,0,1,512,663.73a23.64,23.64,0,0,1-6.55-12.59,1.62,1.62,0,0,1,0-.75l3.5-.78c.06,0,.21.1.3.38a22.44,22.44,0,0,0,1.28,3.5c.08.17,0,.34,0,.37l-.85.5a2.07,2.07,0,0,0-1,1.28c-.47,1.83,3.65,6.07,4.48,6.9.49.49,4.89,4.81,6.77,4.33a2.12,2.12,0,0,0,1.28-1l.5-.85a.33.33,0,0,1,.37,0c.75.36,1.92.82,2.86,1.2l1.12.45,0,.07Z" transform="translate(-503.82 -647.98)"/><path class="cls-1" d="M515.75,652.59a6.32,6.32,0,0,1,6.31,6.31.8.8,0,0,0,1.6,0,7.92,7.92,0,0,0-7.91-7.91.8.8,0,0,0,0,1.6Z" transform="translate(-503.82 -647.98)"/><path class="cls-1" d="M515.75,649.58a9.33,9.33,0,0,1,9.32,9.32.8.8,0,1,0,1.6,0A10.93,10.93,0,0,0,515.75,648a.8.8,0,0,0,0,1.6Z" transform="translate(-503.82 -647.98)"/>
        </g>
    </symbol>
    <symbol id="form-icon-length" viewBox="0 0 123.86 32.6">
        <g>
            <path class="cls-1" d="M183.13,409.89a2.81,2.81,0,0,0,.09-.49s0-.07,0-.1,0-.07,0-.1a2.92,2.92,0,0,0-.09-.5,3,3,0,0,0-.12-.54l-.09-.22s0-.07,0-.1a3.25,3.25,0,0,0-.23-.29,3.58,3.58,0,0,0-.31-.45,1.62,1.62,0,0,0-.19-.18,2.61,2.61,0,0,0-.43-.31,3.4,3.4,0,0,0-.3-.23l-26.08-13a3.26,3.26,0,0,0-2.91,5.84L166.17,406H127.83a3.26,3.26,0,0,0,0,6.52h38.34l-13.72,6.86a3.26,3.26,0,0,0,1.46,6.18,3.29,3.29,0,0,0,1.45-.35l26.08-13c.05,0,.08-.07.13-.09a2.65,2.65,0,0,0,.26-.21,2.72,2.72,0,0,0,.53-.42,2.52,2.52,0,0,0,.34-.51l.05-.06c0-.07.11-.1.15-.16s0-.07,0-.1l.09-.22A3.37,3.37,0,0,0,183.13,409.89Z" transform="translate(-59.38 -393)"/><path class="cls-1" d="M114.79,406H76.45l13.72-6.86a3.26,3.26,0,0,0-2.91-5.84l-26.08,13a2.26,2.26,0,0,0-.29.23,2.77,2.77,0,0,0-.45.31l-.18.18a3.19,3.19,0,0,0-.31.44,3.4,3.4,0,0,0-.23.3.38.38,0,0,1,0,.1c0,.07,0,.14-.08.22a2.36,2.36,0,0,0-.12.54,2.92,2.92,0,0,0-.09.5s0,.06,0,.1,0,.06,0,.1a2.81,2.81,0,0,0,.09.49,2.57,2.57,0,0,0,.12.55c0,.08,0,.15.08.22a.29.29,0,0,1,0,.1c0,.06.11.09.15.16l0,.06a2.56,2.56,0,0,0,.35.51,3,3,0,0,0,.52.42c.1.07.17.15.27.21s.08.07.13.09l26.08,13a3.26,3.26,0,0,0,2.91-5.83l-13.72-6.86h38.34a3.26,3.26,0,1,0,0-6.52Z" transform="translate(-59.38 -393)"/>
        </g>
    </symbol>
    <symbol id="form-icon-width" viewBox="0 0 89.45 89.45">
        <g>
            <path class="cls-1" d="M165.44,366a3,3,0,0,0-.28-.41s0-.06-.06-.08-.06,0-.08-.06a3.93,3.93,0,0,0-.42-.29,3.38,3.38,0,0,0-.47-.3l-.22-.09-.08,0c-.13,0-.25,0-.37-.05a3.2,3.2,0,0,0-.54-.09h-.26a2.36,2.36,0,0,0-.52.09c-.13,0-.25,0-.38.05l-27.65,9.22a3.26,3.26,0,1,0,2.06,6.18l14.56-4.85-27.12,27.11a3.26,3.26,0,1,0,4.61,4.61l27.12-27.11-4.86,14.56a3.26,3.26,0,0,0,5.4,3.33,3.33,3.33,0,0,0,.79-1.27l9.22-27.66s0-.11,0-.16,0-.22,0-.33a2,2,0,0,0,0-1.27s0-.06,0-.08,0-.15,0-.22,0-.06,0-.09l-.09-.21A3,3,0,0,0,165.44,366Z" transform="translate(-76.58 -364.57)"/><path class="cls-1" d="M114.39,411.6,87.28,438.72l4.85-14.56A3.26,3.26,0,1,0,86,422.1l-9.22,27.65c0,.13,0,.25,0,.37a2.44,2.44,0,0,0-.09.54,1,1,0,0,0,0,.25,3.09,3.09,0,0,0,.09.53c0,.13,0,.25,0,.38s0,.05,0,.08l.09.22a4.66,4.66,0,0,0,.3.47,3.93,3.93,0,0,0,.29.42s0,.06.06.08l.08.06a2.56,2.56,0,0,0,.42.28,2.09,2.09,0,0,0,.47.3l.21.1s.06,0,.09.05.14,0,.22,0h.08a2,2,0,0,0,1.27,0c.11,0,.22,0,.33,0s.11,0,.16,0l27.66-9.22a3.18,3.18,0,0,0,1.27-.79,3.26,3.26,0,0,0-3.33-5.4l-14.56,4.86L119,416.21a3.26,3.26,0,1,0-4.61-4.61Z" transform="translate(-76.58 -364.57)"/>
        </g>
    </symbol>
    <symbol id="form-icon-height" viewBox="0 0 32.6 123.86">
        <g>
            <path class="cls-1" d="M121.9,347.48a2,2,0,0,0-.49-.09l-.1,0-.1,0a2.19,2.19,0,0,0-.5.09,2.48,2.48,0,0,0-.54.12l-.22.08s-.07,0-.1,0a6.81,6.81,0,0,1-.74.54l-.18.18a2.45,2.45,0,0,0-.3.44c-.07.11-.18.18-.24.3l-13,26.07a3.26,3.26,0,1,0,5.84,2.92l6.86-13.73v38.35a3.26,3.26,0,1,0,6.52,0V364.43l6.86,13.73a3.26,3.26,0,0,0,6.18-1.46,3.2,3.2,0,0,0-.35-1.46l-13-26.07c0-.05-.07-.08-.09-.13s-.14-.17-.21-.27a3.48,3.48,0,0,0-.41-.52,3,3,0,0,0-.52-.35l-.06,0c-.07,0-.1-.12-.16-.15s-.07,0-.1,0l-.22-.08A2.57,2.57,0,0,0,121.9,347.48Z" transform="translate(-105.01 -347.37)"/><path class="cls-1" d="M118.05,415.82v38.34l-6.86-13.72a3.26,3.26,0,0,0-5.84,2.91l13,26.08c.06.11.16.18.23.29a3.28,3.28,0,0,0,.31.45l.18.18a4.27,4.27,0,0,0,.44.3c.11.07.18.18.3.24l.1,0,.22.09a3.25,3.25,0,0,0,.54.12,2.92,2.92,0,0,0,.5.09l.1,0,.1,0a2.65,2.65,0,0,0,.49-.09,3.37,3.37,0,0,0,.55-.12l.22-.09.1,0c.06,0,.09-.11.16-.15l.06-.05a1.95,1.95,0,0,0,.93-.87,1.94,1.94,0,0,0,.21-.27s.07-.07.09-.12l13-26.08a3.16,3.16,0,0,0,.35-1.45,3.26,3.26,0,0,0-6.18-1.46l-6.86,13.72V415.82a3.26,3.26,0,1,0-6.52,0Z" transform="translate(-105.01 -347.37)"/>
        </g>
    </symbol>
    <symbol id="form-icon-material" viewBox="0 0 24.5 22">
        <g>
            <path class="cls-1" d="M755.5,600.75h-21a1.76,1.76,0,0,0-1.75,1.75V621a1.76,1.76,0,0,0,1.75,1.75h21a1.76,1.76,0,0,0,1.75-1.75V602.5A1.76,1.76,0,0,0,755.5,600.75Zm-21.25,15.14a1.9,1.9,0,0,0,.25,0h21a1.9,1.9,0,0,0,.25,0v1.69a.25.25,0,0,1-.25.25h-21a.25.25,0,0,1-.25-.25Zm0-13.39a.25.25,0,0,1,.25-.25h21a.25.25,0,0,1,.25.25v11.67a.25.25,0,0,1-.25.25h-21a.25.25,0,0,1-.25-.25V602.5Zm21.25,18.75h-21a.25.25,0,0,1-.25-.25v-1.69l.25,0h21l.25,0V621A.25.25,0,0,1,755.5,621.25Z" transform="translate(-732.75 -600.75)"/>
        </g>
    </symbol>
    <symbol id="form-icon-textarea" viewBox="0 0 171.75 186.99">
        <g>
            <path class="cls-1" d="M1537.83,248.51h38.31a13,13,0,0,0,13-13V197.17a5.37,5.37,0,0,0-9.16-3.8l-46,46a5.37,5.37,0,0,0,3.8,9.16Zm40.61-38.39v25.36a2.3,2.3,0,0,1-2.3,2.3h-25.36Z" transform="translate(-1532.46 -191.8)"/><path class="cls-1" d="M1683.43,299.57a5.37,5.37,0,0,0-5.37,5.37v60.82a2.3,2.3,0,0,1-2.29,2.3H1545.49a2.31,2.31,0,0,1-2.3-2.3V259a5.37,5.37,0,1,0-10.73,0v106.8a13.05,13.05,0,0,0,13,13h130.28a13.05,13.05,0,0,0,13-13V304.94A5.37,5.37,0,0,0,1683.43,299.57Z" transform="translate(-1532.46 -191.8)"/><path class="cls-1" d="M1599.13,202.53h76.64a2.3,2.3,0,0,1,2.29,2.3v38.32a5.37,5.37,0,0,0,10.74,0V204.83a13.05,13.05,0,0,0-13-13h-76.64a5.37,5.37,0,0,0,0,10.73Z" transform="translate(-1532.46 -191.8)"/><path class="cls-1" d="M1702.64,268.16l-16.25-16.25a5.36,5.36,0,0,0-7.59,0l-65,65a5.35,5.35,0,0,0-1.08,1.58l-13.56,29.8a5.36,5.36,0,0,0,4.88,7.58,5.49,5.49,0,0,0,2.23-.48l29.8-13.55a5.2,5.2,0,0,0,1.58-1.09l65-65A5.36,5.36,0,0,0,1702.64,268.16ZM1619.23,330l5.28,5.3-9.69,4.4Zm14.55-.59-8.64-8.69,44.69-44.69,8.69,8.65Zm52.33-52.32-8.69-8.65,5.17-5.17,8.67,8.67Z" transform="translate(-1532.46 -191.8)"/>
        </g>
    </symbol>
    <symbol id="message" viewBox="0 0 406.74 322">
        <g>
            <path class="cls-1" d="M656.47,926a8.47,8.47,0,0,1-8.47-8.47V714.16A110.29,110.29,0,0,1,758.16,604H944.58a110.29,110.29,0,0,1,110.16,110.16v33.89A110.29,110.29,0,0,1,944.58,858.21H760.72l-99.55,66.37A8.47,8.47,0,0,1,656.47,926ZM758.16,621A93.31,93.31,0,0,0,665,714.16V901.7l88.51-59a8.47,8.47,0,0,1,4.7-1.43H944.58a93.31,93.31,0,0,0,93.21-93.21V714.16A93.31,93.31,0,0,0,944.58,621Z" transform="translate(-648 -604)"/><path class="cls-1" d="M961.53,705.68H758.16a8.47,8.47,0,1,1,0-16.94H961.53a8.47,8.47,0,1,1,0,16.94Z" transform="translate(-648 -604)"/><path class="cls-1" d="M961.53,773.47H758.16a8.47,8.47,0,1,1,0-16.94H961.53a8.47,8.47,0,0,1,0,16.94Z" transform="translate(-648 -604)"/>
        </g>
    </symbol>
    <symbol id="installation" viewBox="0 0 63.39 72.45">
        <g>
            <path class="cls-1" d="M1512.25,504.92h0a2.46,2.46,0,0,0-.29-.07,1.59,1.59,0,0,0-.3-.06h0a1.42,1.42,0,0,0-.2,0,2.29,2.29,0,0,0-.36.07,1.53,1.53,0,0,0-.27.17c-.07.05-.15.09-.22.15a1.3,1.3,0,0,0-.23.33,1.21,1.21,0,0,0-.1.14h0a1.46,1.46,0,0,0-.07.3,1.5,1.5,0,0,0-.06.29h0v10.84a4.53,4.53,0,0,1-4.53,4.52,4.58,4.58,0,0,1-4.53-4.52V506.3h0a1.59,1.59,0,0,0-.06-.3,1.5,1.5,0,0,0-.06-.29h0a.6.6,0,0,0-.09-.13,1.39,1.39,0,0,0-.24-.34,1,1,0,0,0-.21-.14,1.34,1.34,0,0,0-.28-.18,2,2,0,0,0-.35-.07,1.42,1.42,0,0,0-.2,0h0a1.09,1.09,0,0,0-.3.07,1.36,1.36,0,0,0-.29.06h0a16.6,16.6,0,0,0-.89,30v33.53a7.55,7.55,0,1,0,15.09,0V534.92a16.61,16.61,0,0,0-.9-30Zm-2.12,63.53a4.53,4.53,0,0,1-9.06,0V536.11a16.11,16.11,0,0,0,9.06,0Zm-4.53-34.71a13.57,13.57,0,0,1-7.54-24.86v8.26a7.56,7.56,0,0,0,7.54,7.54,7.55,7.55,0,0,0,7.55-7.54v-8.26a13.57,13.57,0,0,1-7.55,24.86Z" transform="translate(-1489 -503.55)"/><circle class="cls-1" cx="16.6" cy="64.9" r="1.51"/><path class="cls-1" d="M1550.88,536.76h-7.54v-15.1h1.5a1.49,1.49,0,0,0,1.35-.83l3-6a1.53,1.53,0,0,0,.09-1.15l-3-9.06a1.53,1.53,0,0,0-1.44-1h-6a1.53,1.53,0,0,0-1.44,1l-3,9.06a1.48,1.48,0,0,0,.08,1.15l3,6a1.5,1.5,0,0,0,1.35.83h1.51v15.1h-7.55a1.51,1.51,0,0,0-1.51,1.51v6a1.51,1.51,0,0,0,1.51,1.51h1.51v22.64a7.55,7.55,0,1,0,15.09,0V545.81h1.51a1.5,1.5,0,0,0,1.51-1.51v-6A1.5,1.5,0,0,0,1550.88,536.76ZM1537.42,514l2.47-7.43h3.87l2.47,7.43-2.32,4.65h-4.17Zm11.95,28.8h-1.51a1.51,1.51,0,0,0-1.51,1.5v24.15a4.53,4.53,0,1,1-9,0V544.3a1.51,1.51,0,0,0-1.51-1.5h-1.51v-3h15.09Z" transform="translate(-1489 -503.55)"/>
        </g>
    </symbol>
    <symbol id="help-icon-1" viewBox="0 0 511.97 512">
        <g>
            <path class="cls-1" d="M491.51,148.5a70.07,70.07,0,0,0,0-99L442,0,398.64,43.39A253.26,253.26,0,0,0,254.76,0C114.06.68-.22,115.72,0,256.44A256,256,0,0,0,256,512a258.26,258.26,0,0,0,40.22-3.15,63.9,63.9,0,0,0,46.84-33.41,65.13,65.13,0,0,0,1.47-58.6A156.28,156.28,0,0,1,354,267.91a156.58,156.58,0,0,1,43.35-45.23l8.77,254.86v.19a36,36,0,0,0,71.85,0l8.91-258.53A24.86,24.86,0,0,0,492,204V164a24.88,24.88,0,0,0-3.48-12.7C489.55,150.39,490.55,149.47,491.51,148.5ZM392,164v26.49A185.91,185.91,0,0,0,300,351a184.38,184.38,0,0,0,17.34,78.52,35.39,35.39,0,0,1-.77,31.84,34.14,34.14,0,0,1-25,17.86A227.72,227.72,0,0,1,256,482,226,226,0,0,1,30,256.39C29.81,132.16,130.69,30.6,254.91,30A223.94,223.94,0,0,1,379.8,66.89a70.06,70.06,0,0,0,12.72,81.61h0c1,1,2,1.89,3,2.8A24.81,24.81,0,0,0,392,164Zm56,312.38a6,6,0,0,1-11.91,0L427.54,229h28.95ZM462,199H422V169h40Zm8.28-71.71a40,40,0,0,1-56.57,0h0a40,40,0,0,1,0-56.57L442,42.43,470.3,70.72a40,40,0,0,1,0,56.57Z" transform="translate(-0.02 0)"/><path class="cls-1" d="M211,346a45,45,0,1,0,45,45A45,45,0,0,0,211,346Zm0,60a15,15,0,1,1,15-15A15,15,0,0,1,211,406Z" transform="translate(-0.02 0)"/><path class="cls-1" d="M124,263a45,45,0,1,0,45,45A45,45,0,0,0,124,263Zm0,60a15,15,0,1,1,15-15A15,15,0,0,1,124,323Z" transform="translate(-0.02 0)"/><path class="cls-1" d="M145,233a45,45,0,1,0-45-45A45.05,45.05,0,0,0,145,233Zm0-60a15,15,0,1,1-15,15A15,15,0,0,1,145,173Z" transform="translate(-0.02 0)"/><path class="cls-1" d="M238,74a45,45,0,1,0,45,45A45,45,0,0,0,238,74Zm0,60a15,15,0,1,1,15-15A15,15,0,0,1,238,134Z" transform="translate(-0.02 0)"/>
        </g>
    </symbol>
    <symbol id="help-icon-2" viewBox="0 0 547 547">
        <g>
            <path class="cls-1" d="M-56.44,412.46A17.5,17.5,0,0,0-73.94,430v46.79L-197.66,353a17.49,17.49,0,0,0-24.75,0,17.49,17.49,0,0,0,0,24.75L-98.69,501.5h-46.79A17.5,17.5,0,0,0-163,519a17.49,17.49,0,0,0,17.5,17.5h89a16.71,16.71,0,0,0,1.73-.09c.26,0,.52-.07.78-.11s.61-.08.91-.14.59-.14.88-.21l.78-.2c.29-.09.57-.2.85-.3l.77-.28c.26-.11.51-.24.77-.36s.52-.24.78-.38.48-.28.72-.42.5-.29.75-.46.52-.37.77-.56.41-.29.6-.45a18.3,18.3,0,0,0,2.45-2.45c.16-.2.3-.41.46-.61s.38-.5.55-.76.31-.51.46-.76l.43-.71c.13-.26.25-.53.38-.79s.24-.5.35-.76.19-.52.29-.78.2-.56.29-.84.13-.53.2-.79.15-.58.21-.87.1-.61.14-.92.09-.51.11-.77a16.71,16.71,0,0,0,.09-1.73V430A17.49,17.49,0,0,0-56.44,412.46Z" transform="translate(585.94 10.5)"/><path class="cls-1" d="M-526.19,24.5h46.8A17.5,17.5,0,0,0-461.89,7a17.51,17.51,0,0,0-17.5-17.5h-89.05a16.85,16.85,0,0,0-1.73.09c-.25,0-.5.07-.76.11s-.62.08-.93.14-.57.14-.86.21l-.8.21c-.28.08-.55.19-.82.28l-.8.29-.74.35-.81.39-.69.41c-.26.15-.52.3-.78.47s-.48.36-.73.54-.43.31-.64.48c-.43.35-.84.72-1.24,1.11l0,0s0,0,0,0A16.28,16.28,0,0,0-582-4.09c-.17.2-.32.42-.47.63s-.38.49-.55.74-.31.51-.47.77-.28.46-.41.7-.26.53-.38.8-.25.5-.35.75-.2.53-.29.79-.21.55-.29.83-.14.53-.21.79-.15.58-.21.87-.1.61-.14.92-.09.51-.11.77A16.71,16.71,0,0,0-585.94,7V96a17.5,17.5,0,0,0,17.5,17.5A17.49,17.49,0,0,0-550.94,96V49.25L-427.21,173a17.46,17.46,0,0,0,12.37,5.12A17.48,17.48,0,0,0-402.46,173a17.51,17.51,0,0,0,0-24.75Z" transform="translate(585.94 10.5)"/><path class="cls-1" d="M-427.21,353-550.94,476.75V430a17.49,17.49,0,0,0-17.5-17.5,17.5,17.5,0,0,0-17.5,17.5v89a16.71,16.71,0,0,0,.09,1.73c0,.26.07.51.11.77s.08.62.14.92.14.58.21.87.13.53.21.79.19.56.29.84.18.52.28.78.24.51.36.76.24.53.38.79.28.47.42.71.29.51.46.76.37.51.56.76.29.41.46.61a17.58,17.58,0,0,0,2.44,2.44c.2.17.41.31.62.47s.5.38.76.55.5.32.76.47.46.28.7.41l.81.39.74.35c.27.11.53.19.8.29l.82.29c.27.08.54.14.8.2s.57.15.86.21.62.1.93.14.51.09.77.11a16.51,16.51,0,0,0,1.72.09h89.05a17.5,17.5,0,0,0,17.5-17.5,17.51,17.51,0,0,0-17.5-17.5h-46.8l123.73-123.72a17.51,17.51,0,0,0,0-24.75A17.49,17.49,0,0,0-427.21,353Z" transform="translate(585.94 10.5)"/><path class="cls-1" d="M-39,5.27c0-.26-.07-.51-.11-.76s-.08-.62-.14-.93-.14-.58-.21-.86-.12-.54-.2-.8-.19-.55-.29-.83-.18-.53-.29-.79-.23-.5-.35-.75-.25-.54-.39-.8-.27-.47-.41-.7-.3-.52-.47-.77-.36-.49-.54-.74-.31-.43-.48-.63c-.35-.43-.72-.84-1.11-1.24l0,0s0,0,0,0c-.39-.39-.81-.76-1.23-1.11-.21-.17-.43-.32-.65-.48s-.48-.37-.73-.54-.52-.32-.78-.47-.45-.28-.69-.41-.53-.26-.8-.39l-.75-.35-.79-.29c-.28-.09-.55-.2-.83-.28s-.53-.14-.8-.21-.57-.15-.86-.21-.62-.1-.93-.14-.5-.09-.76-.11a16.71,16.71,0,0,0-1.73-.09h-89A17.5,17.5,0,0,0-163,7a17.49,17.49,0,0,0,17.5,17.5h46.79L-222.41,148.23a17.49,17.49,0,0,0,0,24.75A17.44,17.44,0,0,0-210,178.1,17.48,17.48,0,0,0-197.66,173L-73.94,49.25V96a17.5,17.5,0,0,0,17.5,17.5A17.49,17.49,0,0,0-38.94,96V7A16.71,16.71,0,0,0-39,5.27Z" transform="translate(585.94 10.5)"/>
        </g>
    </symbol>
    <symbol id="help-icon-3" viewBox="0 0 510.35 502.56">
        <g>
            <path class="cls-1" d="M1047.15,170.4l-32,5.86a167.14,167.14,0,0,1-19.84,2.3,441.9,441.9,0,0,0,37-59.2l14.88-28.93-32,5.88A170.12,170.12,0,0,1,888.93,70.07L791.78,4.72,536.8,176l59.55,40L536.8,256l59.55,40L536.8,336l255,171.28,93.66-62.94a444,444,0,0,0,146.85-165l14.86-28.91-32,5.86a167.39,167.39,0,0,1-19.84,2.3,441.9,441.9,0,0,0,37-59.2Zm-453,5.6L791.78,43.28l79.34,53.3A201.46,201.46,0,0,0,989,131,412,412,0,0,1,867.58,257.78l-75.8,50.94Zm273.4,241.78-75.8,50.94L594.18,336,625,315.2l166.74,112,93.66-62.94a442.15,442.15,0,0,0,84.45-73.95c6.4.46,12.8.72,19.2.59A411.72,411.72,0,0,1,867.58,417.78Zm0-80-75.8,50.94L594.18,256,625,235.2l166.74,112,93.66-62.94a442.15,442.15,0,0,0,84.45-73.95c6.4.46,12.8.72,19.2.59A411.72,411.72,0,0,1,867.58,337.78Z" transform="translate(-536.8 -4.72)"/><rect class="cls-1" x="126.98" y="152.99" width="32" height="32"/><rect class="cls-1" x="190.98" y="120.99" width="32" height="32"/><rect class="cls-1" x="238.98" y="88.99" width="32" height="32"/><rect class="cls-1" x="190.98" y="184.99" width="32" height="32"/><rect class="cls-1" x="238.98" y="232.99" width="32" height="32"/><rect class="cls-1" x="254.98" y="152.99" width="32" height="32"/><rect class="cls-1" x="302.98" y="120.99" width="32" height="32"/><rect class="cls-1" x="302.98" y="184.99" width="32" height="32"/>
        </g>
    </symbol>
    <symbol id="help-icon-4" viewBox="0 0 404.95 537.28">
        <g>
            <path class="cls-1" d="M1468.17-15H1225.31c-.33,0-.66,0-1,.05l-.4,0a11.47,11.47,0,0,0-1.29.19l-.11,0-1.17.3-.39.12c-.31.1-.61.21-.91.33l-.36.14c-.4.17-.8.35-1.19.56l-.07,0c-.36.2-.72.41-1.07.64l-.32.22c-.27.19-.53.38-.79.59l-.31.24c-.34.29-.67.58-1,.9L1104.67,99.67c-.32.32-.62.66-.9,1l-.25.3c-.2.26-.4.53-.58.8a3.62,3.62,0,0,0-.22.32c-.23.35-.45.71-.64,1.07a.16.16,0,0,0,0,.07c-.21.39-.39.79-.57,1.19,0,.12-.09.23-.13.35-.12.3-.23.61-.33.92a2.78,2.78,0,0,0-.12.38c-.12.4-.23.8-.31,1.21,0,0,0,0,0,.07-.09.43-.15.86-.2,1.3l0,.38c0,.34,0,.68,0,1,0,.08,0,.15,0,.23v375a37.09,37.09,0,0,0,37,37h330.84a37.09,37.09,0,0,0,37-37V22.06A37.09,37.09,0,0,0,1468.17-15ZM1210.55,36.21v52a7.06,7.06,0,0,1-7,7.06h-52L1181,65.75Zm264.67,449a7.05,7.05,0,0,1-7,7H1137.33a7.05,7.05,0,0,1-7-7v-360h73.22a37.09,37.09,0,0,0,37-37.06V15h227.62a7.06,7.06,0,0,1,7,7.06Z" transform="translate(-1100.28 15)"/><path class="cls-1" d="M1402,249.67H1225.55a15,15,0,1,0,0,30H1402a15,15,0,0,0,0-30Z" transform="translate(-1100.28 15)"/><path class="cls-1" d="M1402,360H1225.55a15,15,0,0,0,0,30H1402a15,15,0,0,0,0-30Z" transform="translate(-1100.28 15)"/>
        </g>
    </symbol>
    <symbol id="help-icon-5" viewBox="0 0 603.32 463.18">
        <g>
            <path class="cls-1" d="M1542.31-9.88V95.76h-81.45V203.65h-80.32V311.18h-79.76V453.3H1904.1V-9.88Zm-128.4,317.6V241.36h194.62v66.36ZM1494,200.47V134.41h195.68v66.06Zm80.53-107.09V28.24h195.7V93.38ZM1641,348V241h82V133.14h79.5V28.19h69.88V415.7H1562.07V348ZM1332.2,415.64V349h196v66.68Z" transform="translate(-1300.78 9.88)"/>
        </g>
    </symbol>
    <symbol id="help-icon-6" viewBox="0 0 541.97 497.45">
        <g>
            <path class="cls-1" d="M282.78-128.16H69.32a7.27,7.27,0,0,1-7.26-7.26V-365.27H477.25v12.82a15,15,0,0,0,15,15,15,15,0,0,0,15-15V-469.31A37.3,37.3,0,0,0,470-506.57H418.21v-29.52a15,15,0,0,0-15-15,15,15,0,0,0-15,15v29.52H151.09v-29.52a15,15,0,0,0-15-15,15,15,0,0,0-15,15v29.52H69.32a37.3,37.3,0,0,0-37.26,37.26v333.89A37.3,37.3,0,0,0,69.32-98.16H282.78a15,15,0,0,0,15-15A15,15,0,0,0,282.78-128.16ZM69.32-476.57h51.77v7.26a15,15,0,0,0,15,15,15,15,0,0,0,15-15v-7.26H388.21v7.26a15,15,0,0,0,15,15,15,15,0,0,0,15-15v-7.26H470a7.27,7.27,0,0,1,7.26,7.26v74H62.06v-74A7.27,7.27,0,0,1,69.32-476.57Z" transform="translate(-32.06 551.09)"/><path class="cls-1" d="M447.73-306.24a126.45,126.45,0,0,0-126.3,126.3,126.45,126.45,0,0,0,126.3,126.3A126.44,126.44,0,0,0,574-179.94,126.44,126.44,0,0,0,447.73-306.24Zm0,222.6a96.41,96.41,0,0,1-96.3-96.3,96.41,96.41,0,0,1,96.3-96.3A96.4,96.4,0,0,1,544-179.94,96.4,96.4,0,0,1,447.73-83.64Z" transform="translate(-32.06 551.09)"/><path class="cls-1" d="M462.73-186.15v-60.57a15,15,0,0,0-15-15,15,15,0,0,0-15,15v66.78a14.66,14.66,0,0,0,.07,1.48c0,.22.06.42.09.63s.07.55.13.82.11.49.18.73.1.47.17.7.17.47.25.7.16.46.25.68.2.43.3.65.21.46.33.68.24.4.36.61.25.44.39.65.32.44.48.65.26.36.4.53a14.67,14.67,0,0,0,1,1.1l44.52,44.52a15,15,0,0,0,10.61,4.39,15,15,0,0,0,10.6-4.39,15,15,0,0,0,0-21.22Z" transform="translate(-32.06 551.09)"/>
        </g>
    </symbol>
    <symbol id="layout-icon-1" viewBox="0 0 25 23">
        <g>
            <path class="cls-1" d="M1606.5,199.68V198.5a3,3,0,0,0-3-3h-11.31l-.64-1.7a2,2,0,0,0-1.87-1.3h-4.18a2,2,0,0,0-2,2v18a3,3,0,0,0,3,3h20a2,2,0,0,0,2-2v-11A3,3,0,0,0,1606.5,199.68Zm-21-5.18h4.18l.64,1.7a2,2,0,0,0,1.87,1.3h11.31a1,1,0,0,1,1,1v1h-14a3,3,0,0,0-3,3v10a1,1,0,0,1-2,0Zm21,19h-17.18a3,3,0,0,0,.18-1v-10a1,1,0,0,1,1-1h15a1,1,0,0,1,1,1Z" transform="translate(-1583.5 -192.5)"/>
        </g>
    </symbol>
    <symbol id="layout-icon-2" viewBox="0 0 25 24">
        <g>
            <path class="cls-1" d="M1544.5,193.5h-3a2,2,0,0,0-4,0h-9a2,2,0,0,0-4,0h-3a1,1,0,0,0-1,1v19a2,2,0,0,0,2,2h21a2,2,0,0,0,2-2v-19A1,1,0,0,0,1544.5,193.5Zm-5,0v0Zm-13,0v1h0v-1Zm-2,2a2,2,0,0,0,4,0h9a2,2,0,0,0,4,0h2v4h-21v-4Zm-2,18v-12h21v12Z" transform="translate(-1520.5 -191.5)"/>
        </g>
    </symbol>
    <symbol id="check" viewBox="0 0 25 18">
        <g>
            <path class="cls-1" d="M921.5,1147.5a1,1,0,0,1-.66-.25l-9-8a1,1,0,0,1,1.32-1.5l8.25,7.33,13.34-15.24a1,1,0,0,1,1.5,1.32l-14,16a1,1,0,0,1-.69.34Z" transform="translate(-911.5 -1129.5)"/>
        </g>
    </symbol>
    <symbol id="built-icon-1" viewBox="0 0 510.35 502.56">
        <g>
            <path class="cls-1" d="M1047.15,170.4l-32,5.86a167.14,167.14,0,0,1-19.84,2.3,441.9,441.9,0,0,0,37-59.2l14.88-28.93-32,5.88A170.12,170.12,0,0,1,888.93,70.07L791.78,4.72,536.8,176l59.55,40L536.8,256l59.55,40L536.8,336l255,171.28,93.66-62.94a444,444,0,0,0,146.85-165l14.86-28.91-32,5.86a167.39,167.39,0,0,1-19.84,2.3,441.9,441.9,0,0,0,37-59.2Zm-453,5.6L791.78,43.28l79.34,53.3A201.46,201.46,0,0,0,989,131,412,412,0,0,1,867.58,257.78l-75.8,50.94Zm273.4,241.78-75.8,50.94L594.18,336,625,315.2l166.74,112,93.66-62.94a442.15,442.15,0,0,0,84.45-73.95c6.4.46,12.8.72,19.2.59A411.72,411.72,0,0,1,867.58,417.78Zm0-80-75.8,50.94L594.18,256,625,235.2l166.74,112,93.66-62.94a442.15,442.15,0,0,0,84.45-73.95c6.4.46,12.8.72,19.2.59A411.72,411.72,0,0,1,867.58,337.78Z" transform="translate(-536.8 -4.72)"/><rect class="cls-1" x="126.98" y="152.99" width="32" height="32"/><rect class="cls-1" x="190.98" y="120.99" width="32" height="32"/><rect class="cls-1" x="238.98" y="88.99" width="32" height="32"/><rect class="cls-1" x="190.98" y="184.99" width="32" height="32"/><rect class="cls-1" x="238.98" y="232.99" width="32" height="32"/><rect class="cls-1" x="254.98" y="152.99" width="32" height="32"/><rect class="cls-1" x="302.98" y="120.99" width="32" height="32"/><rect class="cls-1" x="302.98" y="184.99" width="32" height="32"/>
        </g>
    </symbol>
    <symbol id="built-icon-2" viewBox="0 0 527.28 493.8">
        <g>
            <path class="cls-1" d="M878.74,237.23A142.37,142.37,0,0,0,910.59,85.35h0c-.18-.46-.38-.92-.6-1.36l0-.09q-.3-.6-.66-1.17l-.11-.18c-.23-.35-.48-.69-.74-1l-.15-.2a12.52,12.52,0,0,0-.9-1,.23.23,0,0,0-.07-.07c-.07-.08-.13-.16-.21-.24a15.31,15.31,0,0,0-10.9-4.51,15.89,15.89,0,0,0-4,.52l-.13,0c-.36.1-.71.21-1.06.34-.14,0-.27.07-.4.12l-.18.08-.71.32c-.23.11-.47.21-.7.33l-.55.31c-.26.16-.53.31-.79.48l-.34.24c-.31.22-.61.44-.9.67l-.23.2c-.31.26-.61.53-.89.81l-.06,0L821.23,144a35,35,0,1,1-49.57-49.56L835.73,30.4l.15-.17c.11-.11.21-.23.31-.35s.47-.51.69-.78.19-.26.28-.38c.21-.29.42-.57.61-.86.08-.12.14-.24.21-.35.2-.33.39-.65.56-1,.06-.12.11-.24.16-.35.17-.35.33-.7.47-1.06,0,0,0-.05,0-.08s.08-.26.13-.39c.11-.31.22-.63.31-.94s.12-.51.18-.76.11-.45.15-.67.1-.63.13-.94,0-.34.06-.52c0-.33,0-.66.05-1,0-.17,0-.33,0-.5s0-.62-.05-.93,0-.4,0-.6-.07-.52-.12-.77-.08-.51-.13-.76-.09-.39-.14-.58-.16-.62-.26-.92c0-.14-.09-.27-.14-.4-.12-.35-.25-.69-.4-1,0-.1-.09-.19-.13-.29-.17-.35-.34-.71-.53-1.05l-.16-.27c-.19-.33-.39-.66-.61-1l-.27-.36c-.2-.27-.4-.54-.62-.8s-.31-.35-.47-.53l-.43-.48-.11-.09-.68-.62-.45-.39c-.26-.21-.52-.39-.79-.58l-.45-.32c-.27-.18-.55-.34-.84-.5s-.31-.19-.48-.27-.61-.29-.92-.43l-.45-.2-.19-.09A142.4,142.4,0,0,0,678.46,37,140.64,140.64,0,0,0,637,137.11a142.19,142.19,0,0,0,6.33,42.07l-14.58,14.58L546.67,111.5,530.05,61.64a15.32,15.32,0,0,0-7.74-8.94L450.92,17a15.43,15.43,0,0,0-17.79,2.89l-35.7,35.7a15.41,15.41,0,0,0-2.89,17.81l35.7,71.39a15.41,15.41,0,0,0,8.91,7.73l50,16.69,82.05,82.06L446.46,376a65.9,65.9,0,0,0,93.21,93.19l107-107L754.38,470a65.88,65.88,0,0,0,93.16-93.17L745.6,274.86a142.51,142.51,0,0,0,33,3.85A140.71,140.71,0,0,0,878.74,237.23ZM533.32,141.8l73.6,73.78-13.87,13.88-73.7-73.7Zm105.52,85.49c.28-.24.56-.47.82-.74s.54-.58.8-.88l16.3-16.29a143.38,143.38,0,0,0,49.56,49.56L517.85,447.41a35,35,0,0,1-49.57-49.56Zm91.73-108A65.91,65.91,0,0,0,843,165.86l45.13-45.13a111.28,111.28,0,0,1-31.25,94.69A110.76,110.76,0,0,1,700.27,58.78,111.4,111.4,0,0,1,795,27.54L749.85,72.66A65.46,65.46,0,0,0,730.57,119.26ZM718,290.89,825.73,398.62A34.7,34.7,0,0,1,801,458.08h0a35.11,35.11,0,0,1-24.75-9.92L668.46,340.43ZM493.4,138.08,455,125.26,427.11,69.54l20-20L502.8,77.44l12.81,38.44Z" transform="translate(-392.91 4.5)"/><path class="cls-1" d="M492.7,444a15.43,15.43,0,1,0-15.43-15.43A15.44,15.44,0,0,0,492.7,444Z" transform="translate(-392.91 4.5)"/><path class="cls-1" d="M798.61,444a15.43,15.43,0,1,0-15.43-15.43A15.44,15.44,0,0,0,798.61,444Z" transform="translate(-392.91 4.5)"/>
        </g>
    </symbol>
    <symbol id="built-icon-3" viewBox="0 0 642.63 491.98">
        <g>
            <path class="cls-1" d="M291.16-15.78h-462.4c-25.47,0-46.19,22.68-46.19,50.57V74.42h-66.35a21.52,21.52,0,0,0-21.5,21.5V454.7a21.52,21.52,0,0,0,21.5,21.5H228a21.53,21.53,0,0,0,21.5-21.5V386h41.66c25.47,0,46.19-22.68,46.19-50.56V34.79C337.35,6.9,316.63-15.78,291.16-15.78Zm-82.66,451H-264.28V115.42H208.5Zm87.85-99.76c0,5.93-3.36,9.56-5.19,9.56H249.5V95.92A21.52,21.52,0,0,0,228,74.42H-176.43V34.79c0-5.94,3.36-9.57,5.19-9.57h462.4c1.83,0,5.19,3.63,5.19,9.57Z" transform="translate(305.28 15.78)"/><path class="cls-1" d="M-27.89,386A110.82,110.82,0,0,0,82.81,275.31a110.83,110.83,0,0,0-110.7-110.7,110.83,110.83,0,0,0-110.7,110.7A110.82,110.82,0,0,0-27.89,386Zm0-180.39a69.78,69.78,0,0,1,69.7,69.7A69.77,69.77,0,0,1-27.89,345a69.77,69.77,0,0,1-69.7-69.69A69.78,69.78,0,0,1-27.89,205.61Z" transform="translate(305.28 15.78)"/>
        </g>
    </symbol>
    <symbol id="loc" viewBox="0 0 246.03 322">
        <g>
            <path class="cls-1" d="M630,826a20.51,20.51,0,0,1-14.93-6.5C582.52,784.64,506.87,696,507,626.09,507,558.77,562.19,504,630,504s123,54.77,123,122.1c0,69.52-75.58,158.39-108.08,193.37A20.51,20.51,0,0,1,630,826Zm0-308.33c-60.3,0-109.35,48.64-109.35,108.43-.13,66.89,79.87,157.8,104.39,184.07a6.69,6.69,0,0,0,4.93,2.16h0a6.69,6.69,0,0,0,4.94-2.17c24.49-26.37,104.42-117.57,104.42-184.06C739.36,566.31,690.31,517.67,630,517.67Z" transform="translate(-507 -504)"/><path class="cls-1" d="M630,689.44a61.51,61.51,0,1,1,61.5-61.51A61.58,61.58,0,0,1,630,689.44Zm0-109.35a47.84,47.84,0,1,0,47.83,47.84A47.89,47.89,0,0,0,630,580.09Z" transform="translate(-507 -504)"/>
        </g>
    </symbol>
    <symbol id="prev" viewBox="0 0 491 192.98">
        <g>
            <path class="cls-1" d="M959,365.5H549.81l46.61-46.38a18.5,18.5,0,0,0-26.1-26.23l-78,77.61-.21.1-.37.47a18.52,18.52,0,0,0,0,25.89l.38.46.17.09,78,77.61a18.5,18.5,0,0,0,26.1-26.23L549.81,402.5H959a18.5,18.5,0,0,0,0-37Z" transform="translate(-486.5 -287.51)"/>
        </g>
    </symbol>
    <symbol id="quality-icon-1" viewBox="0 0 599.82 561.07">
        <path class="cls-1" d="M1089.2,739.35a157.64,157.64,0,0,0,112.21-46.48,159.56,159.56,0,0,0,35.69-170.22h0c-.15-.37-.31-.73-.49-1.08a.61.61,0,0,0,0-.12c-.13-.25-.28-.5-.42-.75l-.24-.4-.26-.36c-.16-.24-.33-.47-.51-.7l-.12-.13c-.24-.29-.48-.56-.74-.82l0,0-.14-.13c-.24-.23-.48-.45-.74-.67l-.4-.3c-.18-.14-.35-.28-.54-.4s-.45-.29-.68-.43l-.3-.18c-.31-.17-.62-.32-.93-.46l-.1,0a12.68,12.68,0,0,0-7.1-.91h-.12q-.48.09-1,.21l-.35.08-.58.19-.55.17-.18.08a.84.84,0,0,1-.14.06,12.61,12.61,0,0,0-4.09,2.76l-74.12,74.11a45.77,45.77,0,0,1-64.73-64.73l74.15-74.16.12-.14.2-.22c.22-.23.43-.47.63-.71l.13-.18c.21-.28.42-.56.61-.86l0-.05a12.68,12.68,0,0,0,1.52-3.41l.06-.26c.08-.3.15-.61.2-.91s0-.33.07-.49.06-.46.08-.69,0-.42,0-.63a5.42,5.42,0,0,0,0-.57c0-.23,0-.45,0-.68s0-.36,0-.54-.06-.43-.1-.65-.06-.38-.1-.57-.09-.39-.14-.59-.11-.4-.17-.6-.13-.36-.19-.53-.15-.42-.24-.62-.16-.34-.24-.51a6.27,6.27,0,0,0-.29-.58c-.1-.19-.21-.37-.32-.55l-.3-.48c-.15-.22-.32-.44-.48-.65a3.92,3.92,0,0,0-.25-.32c-.22-.27-.45-.52-.69-.77l-.11-.12,0,0c-.27-.27-.56-.52-.85-.77a.87.87,0,0,1-.1-.08c-.27-.22-.55-.42-.84-.62l-.2-.14c-.23-.15-.48-.29-.72-.43l-.38-.22-.65-.3-.5-.22-.13-.06C1088.26,410,1021.42,424,977,468.46a159.21,159.21,0,0,0-38.41,162.35l-22.81,22.81-99.53-99.76L796.6,495a12.62,12.62,0,0,0-6.33-7.31l-82.61-41.31a12.67,12.67,0,0,0-14.6,2.37L651.75,490a12.66,12.66,0,0,0-2.37,14.6l41.31,82.6a12.72,12.72,0,0,0,7.31,6.35l59.06,19.71,99.52,99.53L708.5,860.88A71.06,71.06,0,1,0,809,961.36L936.5,833.87l128.36,128.36a71,71,0,1,0,100.45-100.46L1037,733.41l2.1-2.11A158.83,158.83,0,0,0,1089.2,739.35Zm-94.33-253a134.27,134.27,0,0,1,124-35.8l-59.23,59.24A71.06,71.06,0,0,0,1160.1,610.27L1219.34,551a134.1,134.1,0,0,1-35.81,124,133.41,133.41,0,0,1-188.66,0C942.86,623,942.86,538.35,994.87,486.34Zm-318.8,15.12L704.5,473l69.78,34.9,16.52,49.59-30.25,30.25L711,571.22ZM781.81,602.27l23.53-23.53,92.54,92.77-23.42,23.42Zm9.31,341.21a45.77,45.77,0,0,1-64.74-64.72L923.82,681.33c.31-.26.62-.54.91-.83a11.23,11.23,0,0,0,.88-1l23.74-23.75a160.26,160.26,0,0,0,64.73,64.73Zm356.31-63.83a45.8,45.8,0,0,1,0,64.7c-17.33,17.34-47.39,17.34-64.69,0L954.38,816l64.7-64.7Z" transform="translate(-648.04 -422)"/><path class="cls-1" d="M758.32,905.38A12.65,12.65,0,1,0,771,918,12.64,12.64,0,0,0,758.32,905.38Z" transform="translate(-648.04 -422)"/><path class="cls-1" d="M1112.36,930.67A12.65,12.65,0,1,0,1099.72,918,12.64,12.64,0,0,0,1112.36,930.67Z" transform="translate(-648.04 -422)"/>
    </symbol>
    <symbol id="quality-icon-2" viewBox="0 0 594.23 564.5">
        <path class="cls-1" d="M945,687.91a75.61,75.61,0,1,1,75.6-75.61A75.69,75.69,0,0,1,945,687.91Zm0-126a50.4,50.4,0,1,0,50.4,50.4A50.45,50.45,0,0,0,945,561.9Z" transform="translate(-504 -385.5)"/><path class="cls-1" d="M743.4,536.7A75.6,75.6,0,1,1,819,461.1,75.69,75.69,0,0,1,743.4,536.7Zm0-126a50.4,50.4,0,1,0,50.41,50.4A50.45,50.45,0,0,0,743.4,410.7Z" transform="translate(-504 -385.5)"/><path class="cls-1" d="M741.72,950a100,100,0,0,1-42.47-9.52L525.78,859.25A37.94,37.94,0,0,1,504,825V688.8a37.83,37.83,0,0,1,12.29-27.89,38.3,38.3,0,0,1,29.28-9.77c40.28,3.74,80.41,19.44,126,49.37H777.94c56.47,0,96.13,37.5,103,95.11,31.67-12.7,100.52-39.47,130.36-44.54,35.74-6,59.2,9.41,73.68,21.58a36.93,36.93,0,0,1,12.64,35.13,37.67,37.67,0,0,1-24.55,29.13L775.75,944A100.15,100.15,0,0,1,741.72,950ZM542,676.18a12.78,12.78,0,0,0-8.7,3.36,12.39,12.39,0,0,0-4.07,9.26V825a12.68,12.68,0,0,0,7.26,11.42l173.47,81.22a75.58,75.58,0,0,0,57.28,2.65l297.33-107.09a12.78,12.78,0,0,0,8.28-9.86,11.9,11.9,0,0,0-4-11.4c-12.29-10.33-28.24-20.36-53.24-16-34.95,5.94-135.34,47.17-141.07,49.52a11.93,11.93,0,0,1-2.6.82,12.06,12.06,0,0,1-2.74.24H667.8a12.6,12.6,0,1,1,0-25.2H856.14c-3.94-37.29-25.92-75.6-78.2-75.6H667.8a12.62,12.62,0,0,1-7-2.12c-56.92-38-94.35-45.2-117.57-47.35A10.8,10.8,0,0,0,542,676.18Z" transform="translate(-504 -385.5)"/>
    </symbol>
    <symbol id="quality-icon-3" viewBox="0 0 63.31 56.26">
        <g>
            <path class="cls-1" d="M1284.12,962.43h11.72a3.53,3.53,0,0,0,3.52-3.52V947.19a1.17,1.17,0,0,0-2-.83l-14.07,14.07a1.17,1.17,0,0,0,.83,2ZM1297,950v8.89a1.18,1.18,0,0,1-1.18,1.18H1287Z" transform="translate(-1282.95 -946.02)"/><path class="cls-1" d="M1328.66,990.71a1.17,1.17,0,0,0-1.17,1.17v6.88a1.17,1.17,0,0,1-1.18,1.17h-39.84a1.17,1.17,0,0,1-1.17-1.17V966.09a1.18,1.18,0,0,0-2.35,0v32.67a3.53,3.53,0,0,0,3.52,3.52h39.84a3.53,3.53,0,0,0,3.52-3.52v-6.88A1.17,1.17,0,0,0,1328.66,990.71Z" transform="translate(-1282.95 -946.02)"/><path class="cls-1" d="M1302.87,948.37h23.44a1.17,1.17,0,0,1,1.18,1.17v18.75a1.17,1.17,0,1,0,2.34,0V949.54a3.53,3.53,0,0,0-3.52-3.52h-23.44a1.18,1.18,0,0,0,0,2.35Z" transform="translate(-1282.95 -946.02)"/><path class="cls-1" d="M1345.92,966.9l-5-5a1.21,1.21,0,0,0-1.66,0l-19.89,19.89a1.18,1.18,0,0,0-.23.35l-4.15,9.11a1.17,1.17,0,0,0,1.07,1.66,1.15,1.15,0,0,0,.48-.1l9.12-4.15a1.16,1.16,0,0,0,.34-.24l19.89-19.89A1.16,1.16,0,0,0,1345.92,966.9Zm-25.32,17.77,2.56,2.58-4.71,2.15Zm4.59,1.3-3.31-3.32,14.34-14.34,3.32,3.31Zm16-16-3.33-3.31,2.25-2.24,3.32,3.32Z" transform="translate(-1282.95 -946.02)"/><path class="cls-1" d="M1313.9,971.42l-9.18,9.18-5.84-5.84a1.17,1.17,0,0,0-1.66,1.66l6.67,6.67a1.18,1.18,0,0,0,1.66,0l10-10a1.17,1.17,0,0,0-1.66-1.66Z" transform="translate(-1282.95 -946.02)"/>
        </g>
    </symbol>
    <symbol id="quality-icon-4" viewBox="0 0 110.13 110.13">
        <g>
            <path class="cls-1" d="M1210.9,218.43h-11.47V207a2.3,2.3,0,0,0-4.59,0v11.48H1130.6V207a2.3,2.3,0,0,0-4.59,0v11.48h-11.47a6.89,6.89,0,0,0-6.88,6.88V307.9a6.89,6.89,0,0,0,6.88,6.89h96.36a6.9,6.9,0,0,0,6.89-6.89V225.31A6.89,6.89,0,0,0,1210.9,218.43ZM1114.54,223H1126v6.89a2.3,2.3,0,0,0,4.59,0V223h64.24v6.89a2.3,2.3,0,0,0,4.59,0V223h11.47a2.3,2.3,0,0,1,2.3,2.3v16.06h-101V225.31A2.3,2.3,0,0,1,1114.54,223Zm96.36,87.19h-96.36a2.3,2.3,0,0,1-2.29-2.3V246h101V307.9A2.3,2.3,0,0,1,1210.9,310.2Z" transform="translate(-1107.66 -204.66)"/><polygon class="cls-1" points="42.66 51.23 29.32 55.3 29.32 59.49 38.25 56.83 38.25 86.78 29.54 86.78 29.54 90.65 51.34 90.65 51.34 86.78 42.66 86.78 42.66 51.23"/><path class="cls-1" d="M1177.53,271.92c-1,0-2.1,0-3.28.11v-11.3h14.49v-4h-18.66v19.34q4.44-.33,6.05-.33,4.75,0,7.31,2.13a7.25,7.25,0,0,1,2.56,5.91,8,8,0,0,1-2.5,6.13,9.33,9.33,0,0,1-6.59,2.32,14.72,14.72,0,0,1-8-2.56v4.68q2.64,1.59,8,1.59,6.35,0,10-3.42a11.81,11.81,0,0,0,3.64-9,11,11,0,0,0-3.39-8.51Q1183.71,271.91,1177.53,271.92Z" transform="translate(-1107.66 -204.66)"/>
        </g>
    </symbol>
    <symbol id="quality-icon-5" viewBox="0 0 141.27 105.6">
        <g>
            <path class="cls-1" d="M738.93,1252.93H697.86a2.94,2.94,0,0,0,0,5.87h41.07a2.94,2.94,0,0,0,0-5.87Z" transform="translate(-648 -1188.4)"/><path class="cls-1" d="M686.13,1252.93H673.45c-.78,0-2-1.57-2-2.93a2.94,2.94,0,0,0-5.87,0c0,4.16,3.36,8.8,7.85,8.8h12.68a2.94,2.94,0,1,0,0-5.87Z" transform="translate(-648 -1188.4)"/><path class="cls-1" d="M768.26,1247.07a2.93,2.93,0,0,0-2.93,2.93c0,1.36-1.2,2.93-2,2.93H750.66a2.94,2.94,0,0,0,0,5.87h12.69c4.49,0,7.85-4.64,7.85-8.8A2.94,2.94,0,0,0,768.26,1247.07Z" transform="translate(-648 -1188.4)"/><path class="cls-1" d="M789.27,1221.62c0-3.16,0-9.75-8.8-9.75H766.19a53.8,53.8,0,0,1-3.08-11.14c-2.12-12.33-19-12.33-26.14-12.33H699.82c-7.19,0-24,0-26.16,12.54a40.09,40.09,0,0,1-3,10.93H656.8c-8.8,0-8.8,6.59-8.8,9.75,0,4.49,4.65,7.85,8.8,7.85h3.64c-.66.88-1.32,1.76-2,2.57a20.63,20.63,0,0,0-4.6,12.94v22.2c0,5.54,7.5,9.22,12.47,9.22h-.74v8.8a8.81,8.81,0,0,0,8.8,8.8h5.87a8.81,8.81,0,0,0,8.8-8.8v-8.8h58.66v8.8a8.81,8.81,0,0,0,8.8,8.8h5.87a8.81,8.81,0,0,0,8.8-8.8v-8.8h-.75c5,0,12.48-3.68,12.48-9.22V1245a20.83,20.83,0,0,0-4.66-13c-.68-.83-1.29-1.67-1.92-2.5h4.12C784.62,1229.47,789.27,1226.11,789.27,1221.62Zm-109.8-19.9c1.12-6.56,10.92-7.45,20.35-7.45H737c9.44,0,19.23.89,20.35,7.42a63.55,63.55,0,0,0,6.9,19.75,501.54,501.54,0,0,1-91.7,0C676,1215,678.85,1208,679.47,1201.72ZM656.8,1223.6c-1.36,0-2.93-1.19-2.93-2,0-3.44,0-3.88,2.93-3.88h11.05c-1.05,2-2.2,4-3.4,5.86Zm26.4,61.6a2.93,2.93,0,0,1-2.93,2.93H674.4a2.93,2.93,0,0,1-2.93-2.93v-8.8H683.2Zm82.13,0a2.93,2.93,0,0,1-2.93,2.93h-5.87a2.93,2.93,0,0,1-2.93-2.93v-8.8h11.73Zm11.73-18c0,1-3.6,3.35-6.61,3.35H666.34c-3,0-6.61-2.4-6.61-3.35V1245a14.53,14.53,0,0,1,3.3-9.25,96.3,96.3,0,0,0,6.2-8.7,470.83,470.83,0,0,0,48.7,2.4c16.85,0,33.83-.8,49.54-2.4a94.93,94.93,0,0,0,6.24,8.63,14.91,14.91,0,0,1,3.35,9.32Zm-8.19-49.44h11.6c2.93,0,2.93.44,2.93,3.88,0,.79-1.57,2-2.93,2h-8.24C771,1221.64,769.87,1219.69,768.87,1217.74Z" transform="translate(-648 -1188.4)"/>
        </g>
    </symbol>
    <symbol id="quality-icon-6" viewBox="0 0 190.45 253.94">
        <g>
            <path class="cls-1" d="M1734.13,234.32h-95.22a5.28,5.28,0,0,1-5.29-5.29V218.45A26.48,26.48,0,0,1,1660.07,192H1713a26.48,26.48,0,0,1,26.45,26.45V229A5.28,5.28,0,0,1,1734.13,234.32Zm-89.93-10.58h84.64v-5.29A15.89,15.89,0,0,0,1713,202.58h-52.9a15.89,15.89,0,0,0-15.87,15.87Z" transform="translate(-1591.29 -192)"/><path class="cls-1" d="M1776.45,445.94H1596.58a5.29,5.29,0,0,1-5.29-5.29V218.45a5.29,5.29,0,0,1,5.29-5.29h21.16a5.29,5.29,0,0,1,0,10.58h-15.87V435.36h169.29V223.74h-15.87a5.29,5.29,0,1,1,0-10.58h21.16a5.29,5.29,0,0,1,5.29,5.29v222.2A5.29,5.29,0,0,1,1776.45,445.94Z" transform="translate(-1591.29 -192)"/><path class="cls-1" d="M1638.91,319a5.27,5.27,0,0,1-3.74-1.55L1614,296.26a5.29,5.29,0,0,1,7.48-7.48l17.43,17.42,28-28a5.29,5.29,0,0,1,7.48,7.48l-31.74,31.74A5.3,5.3,0,0,1,1638.91,319Z" transform="translate(-1591.29 -192)"/><path class="cls-1" d="M1744.71,308.39h-42.32a5.29,5.29,0,0,1,0-10.58h42.32a5.29,5.29,0,0,1,0,10.58Z" transform="translate(-1591.29 -192)"/><path class="cls-1" d="M1638.91,382.45a5.23,5.23,0,0,1-3.74-1.55L1614,359.74a5.29,5.29,0,0,1,7.48-7.48l17.43,17.42,28-28a5.29,5.29,0,0,1,7.48,7.48l-31.74,31.74A5.26,5.26,0,0,1,1638.91,382.45Z" transform="translate(-1591.29 -192)"/><path class="cls-1" d="M1744.71,371.87h-42.32a5.29,5.29,0,0,1,0-10.58h42.32a5.29,5.29,0,0,1,0,10.58Z" transform="translate(-1591.29 -192)"/>
        </g>
    </symbol>
    <symbol id="quality-icon-7" viewBox="0 0 100.46 105.61">
        <g>
            <path class="cls-1" d="M1686.46,1009.28a10,10,0,0,0-10-10h-16.18l.09-.22c3.75-9.08,7.63-18.46,4.59-29.33-2-7.32-7.78-10-12.17-9.38-3.49.47-5.83,2.92-5.83,6.08,0,20.15-12.7,36.18-25.38,40.87v-1.44a6.67,6.67,0,0,0-6.67-6.66h-22.22a6.67,6.67,0,0,0-6.67,6.66v53.34a6.67,6.67,0,0,0,6.67,6.67h22.22a6.67,6.67,0,0,0,6.67-6.67v-.94c4.79,2.17,13.85,5.88,19.82,5.88h27.27a2.28,2.28,0,0,0,.9-.2,9,9,0,0,0,7.16-8.84,8.94,8.94,0,0,0-1.94-5.54,10,10,0,0,0,5.84-9.08,9.9,9.9,0,0,0-2.32-6.33,9.86,9.86,0,0,0,2.54-1.56,2.37,2.37,0,0,0,.34-.29,9.94,9.94,0,0,0,.43-14.46A10,10,0,0,0,1686.46,1009.28Zm-69.34,49.9a2.23,2.23,0,0,1-2.23,2.23h-22.22a2.22,2.22,0,0,1-2.22-2.23v-53.34a2.22,2.22,0,0,1,2.22-2.22h22.22a2.23,2.23,0,0,1,2.23,2.22Zm53.47-13.15h-1.94a1.76,1.76,0,0,0-.33.07c-.22,0-.43-.07-.65-.07h-1a2.23,2.23,0,1,0,0,4.45h1a4.6,4.6,0,1,1,0,9.19h-26.29c-5.93,0-16.3-4.66-19.82-6.32v-41.41c14.66-4.56,29.82-22.65,29.82-45.53,0-1.31,1.53-1.62,2-1.68,2.54-.39,6,1.42,7.29,6.18,2.63,9.39-1,18.06-4.41,26.43l-1.36,3.32a2.22,2.22,0,0,0,2.07,3.05h19.48a5.57,5.57,0,1,1,0,11.14h-2a2.23,2.23,0,0,0,0,4.45,5.57,5.57,0,1,1,0,11.14h-3.9a2.23,2.23,0,0,0,0,4.45,5.57,5.57,0,1,1,0,11.14Z" transform="translate(-1586 -960.24)"/><path class="cls-1" d="M1610.19,1049.93a4.17,4.17,0,1,0,4.17,4.17A4.17,4.17,0,0,0,1610.19,1049.93Zm0,4.44a.28.28,0,0,1-.28-.27l.28-.27Z" transform="translate(-1586 -960.24)"/>
        </g>
    </symbol>
    <symbol id="quality-icon-8" viewBox="0 0 56.72 56.72">
        <g>
            <path class="cls-1" d="M972,1111.64a28.36,28.36,0,1,0,28.36,28.36A28.39,28.39,0,0,0,972,1111.64Zm0,54.36a26,26,0,1,1,26-26A26,26,0,0,1,972,1166Z" transform="translate(-943.64 -1111.64)"/><path class="cls-1" d="M986.48,1128.58,968.32,1149l-10.94-8.75a1.18,1.18,0,1,0-1.48,1.84l11.82,9.46s0,0,0,0a1.2,1.2,0,0,0,.69.24,1.17,1.17,0,0,0,.49-.11,1.7,1.7,0,0,0,.14-.1,1.24,1.24,0,0,0,.26-.19l18.91-21.27a1.18,1.18,0,0,0-1.77-1.57Z" transform="translate(-943.64 -1111.64)"/>
        </g>
    </symbol>
    <symbol id="instagram" viewBox="0 0 71.83 71.83">
        <g>
            <path class="cls-1" d="M-25.92-11.55a14.4,14.4,0,0,1,4.21-10.16,14.4,14.4,0,0,1,10.16-4.21h43.1a14.4,14.4,0,0,1,10.16,4.21,14.4,14.4,0,0,1,4.21,10.16v43.1A14.36,14.36,0,0,1,31.55,45.91h-43.1a14.39,14.39,0,0,1-10.16-4.2,14.38,14.38,0,0,1-4.21-10.16Zm14.37-7.18a7.23,7.23,0,0,0-5.08,2.1,7.23,7.23,0,0,0-2.1,5.08v43.1a7.21,7.21,0,0,0,2.1,5.08,7.18,7.18,0,0,0,5.08,2.1h43.1a7.17,7.17,0,0,0,7.18-7.18v-43.1a7.23,7.23,0,0,0-2.1-5.08,7.23,7.23,0,0,0-5.08-2.1ZM10-.77a10.75,10.75,0,1,0,7.62,3.15A10.77,10.77,0,0,0,10-.77M-8,10A18,18,0,1,1-2.7,22.7,18,18,0,0,1-8,10M29.75-4.37a5.38,5.38,0,0,0,3.81-1.57,5.39,5.39,0,0,0,1.58-3.81,5.39,5.39,0,0,0-1.58-3.81,5.39,5.39,0,0,0-3.81-1.58,5.42,5.42,0,0,0-3.81,1.58,5.38,5.38,0,0,0-1.57,3.81,5.38,5.38,0,0,0,1.57,3.81,5.41,5.41,0,0,0,3.81,1.57" transform="translate(25.92 25.92)"/>
        </g>
    </symbol>
    <symbol id="facebook" viewBox="0 0 45.4 45.4">
        <g>
            <path class="cls-1" d="M-12.7-3.62A9,9,0,0,1-10-10,9,9,0,0,1-3.62-12.7H23.62A9,9,0,0,1,30-10,9.08,9.08,0,0,1,32.7-3.62V23.62a9.08,9.08,0,0,1-9.08,9.08H-3.62A9,9,0,0,1-10,30a9,9,0,0,1-2.66-6.42Zm9.08-4.54A4.55,4.55,0,0,0-6.83-6.83,4.55,4.55,0,0,0-8.16-3.62V23.62a4.53,4.53,0,0,0,1.33,3.21,4.55,4.55,0,0,0,3.21,1.33H10V12.27H7.73a2.27,2.27,0,1,1,0-4.54H10V4.32a8,8,0,0,1,8-7.94h1.36a2.27,2.27,0,0,1,1.6.66,2.28,2.28,0,0,1,.67,1.61A2.28,2.28,0,0,1,20.91.26a2.27,2.27,0,0,1-1.6.66H18a3.48,3.48,0,0,0-1.31.26,3.28,3.28,0,0,0-1.1.74A3.28,3.28,0,0,0,14.8,3a3.43,3.43,0,0,0-.26,1.3V7.73h4.77a2.27,2.27,0,0,1,0,4.54H14.54V28.16h9.08a4.54,4.54,0,0,0,4.54-4.54V-3.62a4.55,4.55,0,0,0-1.33-3.21,4.55,4.55,0,0,0-3.21-1.33Z" transform="translate(12.7 12.7)"/>
        </g>
    </symbol>
    <!-- адаптивные иконки -->
    <symbol id="hamburger" viewBox="0 0 15 15">
        <g>
            <path d="M-0.000,14.999 L-0.000,14.000 L15.000,14.000 L15.000,14.999 L-0.000,14.999 ZM-0.000,6.999 L15.000,6.999 L15.000,8.000 L-0.000,8.000 L-0.000,6.999 ZM-0.000,-0.000 L15.000,-0.000 L15.000,0.999 L-0.000,0.999 L-0.000,-0.000 Z"/>
        </g>
    </symbol>
    <symbol id="toggle" viewBox="0 0 9 5">
        <g>
            <path d="M4.497,-0.003 C4.336,-0.003 4.174,0.057 4.052,0.177 L0.182,3.952 C-0.065,4.192 -0.065,4.582 0.182,4.822 C0.428,5.062 0.827,5.062 1.073,4.822 L4.497,1.482 L7.921,4.821 C8.168,5.062 8.567,5.062 8.813,4.821 C9.059,4.581 9.059,4.192 8.813,3.952 L4.942,0.177 C4.820,0.057 4.658,-0.003 4.497,-0.003 L4.497,-0.003 Z"/>
        </g>
    </symbol>
</svg>